<svg id="Layer_1" data-name="Layer 1" xmlns="http://www.w3.org/2000/svg" width="801.03" height="802.72" viewBox="0 0 801.03 802.72"><defs><style>.cls-1{fill:#394157;}.cls-2{fill:#f48200;}.cls-3{fill:#59c6a0;}.cls-4{fill:#fff;}</style></defs><title>Artboard 1</title><circle class="cls-1" cx="403.85" cy="401.8" r="391.55"/><path class="cls-2" d="M308,81.53h38.61V539.78l-63.88,0c-42.49,2.14-158.74-91.51-45-217.58,35.12-2.56,24.65,28.16,24.65,28.16s-78.87,85.75,14.17,150.49l31.43.1Z"/><path class="cls-3" d="M347.83,81.53h39.9v500H276c-83,0-188.62-151.56-67-279.86,25.92-4.69,28.79,20.48,28.79,20.48-85.85,88.31-48.54,194.22,39.85,217.63h69Z"/><path class="cls-2" d="M499.67,581.53H461.05V123.29l63.88,0c42.49-2.14,158.75,91.51,45,217.58-35.12,2.56-24.65-28.16-24.65-28.16S624.14,227,531.09,162.27l-31.42-.1Z"/><path class="cls-3" d="M459.88,581.53H420v-500H531.71c83,0,188.62,151.57,67,279.87-25.91,4.69-28.79-20.48-28.79-20.48,85.86-88.31,48.54-194.22-39.84-217.63h-69Z"/><path class="cls-4" d="M252.46,675.66a12.46,12.46,0,0,1-5.51-4.35,12.09,12.09,0,0,1-2-7.1q0-5.1,2.81-7.38a9.92,9.92,0,0,1,6.41-2.26,14.62,14.62,0,0,0-3,4.6,13.33,13.33,0,0,0-1,5,9.85,9.85,0,0,0,2.84,7.2q2.85,2.88,8.17,2.88a17.12,17.12,0,0,0,6.45-1.22,12.19,12.19,0,0,0,5-3.6,8.67,8.67,0,0,0,1.95-5.69,9,9,0,0,0-1.44-5.07,14,14,0,0,0-3.6-3.75q-2.16-1.55-5.76-3.71a68.84,68.84,0,0,1-5.87-3.78,15.05,15.05,0,0,1-3.71-3.92,9.48,9.48,0,0,1-1.51-5.33,17.36,17.36,0,0,1,2.59-8.67,21.89,21.89,0,0,1,7.31-7.53,19.28,19.28,0,0,1,10.62-3q4,0,5.76,1.94a7.45,7.45,0,0,1,1.8,5.26,22.62,22.62,0,0,1-1.73,8.06,44.41,44.41,0,0,1-3.82,7.78,2.81,2.81,0,0,1-2.37-3.1,10.47,10.47,0,0,1,.54-3.09c.36-1.16.87-2.6,1.55-4.32.72-1.88,1.26-3.4,1.62-4.58a10.83,10.83,0,0,0,.54-3.13,2.9,2.9,0,0,0-.9-2.3,4.79,4.79,0,0,0-3.14-.79,13.17,13.17,0,0,0-7.88,2.62,20.49,20.49,0,0,0-5.8,6.38,13.89,13.89,0,0,0-2.16,6.84,7,7,0,0,0,1.26,4.1,13,13,0,0,0,3.14,3.13,52.57,52.57,0,0,0,5.11,3.13,64.46,64.46,0,0,1,6.26,4,16.17,16.17,0,0,1,4.07,4.46,11.75,11.75,0,0,1,1.69,6.38A12.69,12.69,0,0,1,276,670a17.9,17.9,0,0,1-7.09,5.3A22.69,22.69,0,0,1,260,677.1,19.3,19.3,0,0,1,252.46,675.66Z"/><path class="cls-4" d="M285,671a6.49,6.49,0,0,1-1.44-4.36,27,27,0,0,1,1.62-7.77,37.37,37.37,0,0,1,4-8.72q2.41-3.74,4.71-3.74a1.57,1.57,0,0,1,1.12.43,1.51,1.51,0,0,1,.47,1.15c0,.68-.77,2.28-2.31,4.83a70,70,0,0,0-3.78,7.09,14.65,14.65,0,0,0-1.4,5.94,5.19,5.19,0,0,0,.83,3.42,3.51,3.51,0,0,0,2.7.9q5.61,0,11.09-11l.64.72a20.73,20.73,0,0,1-5.94,9.44,12.49,12.49,0,0,1-8.24,3.38A5.07,5.07,0,0,1,285,671Zm10.62-31.9a2,2,0,0,1-.83-1.76,3.17,3.17,0,0,1,1.73-2.59,6.26,6.26,0,0,1,3.52-1.16c1.59,0,2.38.75,2.38,2.24a3.5,3.5,0,0,1-1.48,2.62,4.83,4.83,0,0,1-3.2,1.26A3.46,3.46,0,0,1,295.63,639.12Z"/><path class="cls-4" d="M320.79,671a4.48,4.48,0,0,1-1.3-3.35,8.89,8.89,0,0,1,.33-2.2c.21-.84.44-1.66.68-2.48s.54-1.78.76-2.74a12.25,12.25,0,0,0,.32-2.59q0-3.52-2.88-3.53-2.73,0-5.72,2.88a38.37,38.37,0,0,0-5.33,6.41q-2.34,3.52-5.29,8.5a5.9,5.9,0,0,1-2.23-.4,3.44,3.44,0,0,1-1.59-1.19,13.12,13.12,0,0,1,.94-2.59q1.8-4.61,2.95-8.39a25.12,25.12,0,0,0,1.22-6.73,4.78,4.78,0,0,1,1.44-1,4.22,4.22,0,0,1,1.88-.47c1.29,0,1.94.62,1.94,1.87a19.41,19.41,0,0,1-.65,3.78q-.64,2.7-1.65,5.73a48.29,48.29,0,0,1,7.34-9c2.59-2.45,5.14-3.68,7.63-3.68a4.56,4.56,0,0,1,4,1.91,7.77,7.77,0,0,1,1.33,4.57,11.14,11.14,0,0,1-.4,3,27.76,27.76,0,0,1-1.18,3.31c-.44,1.06-.77,2-1,2.74a7.61,7.61,0,0,0-.36,2.3c0,1.82.72,2.74,2.16,2.74q2.44,0,5.07-3.24a43.63,43.63,0,0,0,5-8l.79.94q-5.19,12.17-12.46,12.17A5.14,5.14,0,0,1,320.79,671Z"/><path class="cls-4" d="M336.7,672.49q-2.24-2.37-2.23-6.84a19.18,19.18,0,0,1,2.38-9.14,21.41,21.41,0,0,1,6.08-7.24,12.28,12.28,0,0,1,7.31-2.77,4.64,4.64,0,0,1,3.92,1.55,6,6,0,0,1,1.19,3.78,6.82,6.82,0,0,1-1,3.71,3,3,0,0,1-2.63,1.55,2.6,2.6,0,0,1-2.09-1.08,4.33,4.33,0,0,0,1.87-2.27,8.32,8.32,0,0,0,.79-3.42A2.21,2.21,0,0,0,352,649a1.53,1.53,0,0,0-1.23-.43q-2.44,0-5.22,2.91a25.61,25.61,0,0,0-4.68,7.1,18.56,18.56,0,0,0-1.91,7.63,7.09,7.09,0,0,0,1.23,4.28,4.62,4.62,0,0,0,4,1.69q4.4,0,8.68-3.6a23.12,23.12,0,0,0,6.58-9.43l.94.72a27,27,0,0,1-4.54,7.74,23,23,0,0,1-6.37,5.37,14.24,14.24,0,0,1-7,1.94A7.61,7.61,0,0,1,336.7,672.49Z"/><path class="cls-4" d="M359.34,671.67a8.3,8.3,0,0,1-2.26-6,18.54,18.54,0,0,1,2.8-9.14,28.14,28.14,0,0,1,7.1-8.24,13.65,13.65,0,0,1,8.39-3.35q4.45,0,4.46,4.39a9.86,9.86,0,0,1-2.67,6.59,20,20,0,0,1-6.84,5,26,26,0,0,1-8.35,2.38,11.36,11.36,0,0,0-.28,2.59,7,7,0,0,0,1.29,4.32c.86,1.15,2.33,1.73,4.39,1.73q4.39,0,8.86-3.67a28.88,28.88,0,0,0,7.27-9.08l.87.65a26.09,26.09,0,0,1-8,10.3A17.21,17.21,0,0,1,365.86,674,8.68,8.68,0,0,1,359.34,671.67Zm9.33-12.78a23.13,23.13,0,0,0,5.65-4.58,8.19,8.19,0,0,0,2.34-5.5,2,2,0,0,0-.32-1.26,1.46,1.46,0,0,0-1.19-.4,7.78,7.78,0,0,0-4.86,2.23,25.26,25.26,0,0,0-4.83,5.69,25.66,25.66,0,0,0-3.13,6.84A38,38,0,0,0,368.67,658.89Z"/><path class="cls-4" d="M400,676.31a6.49,6.49,0,0,1-2.52-2.16,22.88,22.88,0,0,0,2.3.14,47,47,0,0,0,7.78-.79,68.94,68.94,0,0,0,3.63-11.84q1.69-7.38,3.86-18.83,1.57-8.79,2.88-14-6.71,4.76-8.28,4.75a1.86,1.86,0,0,1-1.37-.43,2.37,2.37,0,0,1-.43-1.66,47.89,47.89,0,0,0,7-4.89A70.28,70.28,0,0,0,423,619a3,3,0,0,1,.64,2.23,19.72,19.72,0,0,1-.86,4.46c-.34,1.44-.6,2.64-.79,3.6q-1.72,12-4.61,24.16A101.8,101.8,0,0,1,411,673a19.6,19.6,0,0,1,2.88-.22,10.93,10.93,0,0,1,4.79.87,4.09,4.09,0,0,1,2.2,3.16,52.35,52.35,0,0,0-5.69-.36,63.9,63.9,0,0,0-6.62.36c-2.5.2-4.37.29-5.62.29A6.6,6.6,0,0,1,400,676.31Z"/><path class="cls-4" d="M435.2,676a3.51,3.51,0,0,1-1.88-3.24q0-2.31,3.17-3.31l-.07,1.8a4.74,4.74,0,0,0,.9,3,3.84,3.84,0,0,0,3.2,1.16q4.32,0,8-4.11a36.09,36.09,0,0,0,6.34-10.47,70.44,70.44,0,0,0,4-13.36,15.24,15.24,0,0,1-5.4,3.46,18.12,18.12,0,0,1-6.55,1.22,13.62,13.62,0,0,1-9.79-3.71q-3.88-3.71-3.89-10.91a19.63,19.63,0,0,1,2.27-9.46,17,17,0,0,1,6.37-6.66,17.86,17.86,0,0,1,9.36-2.45q7.92,0,11.63,5.22t3.71,13.64a52.18,52.18,0,0,1-3.31,17.68A42.35,42.35,0,0,1,454,670.91q-6,6.2-13.71,6.19A10,10,0,0,1,435.2,676Zm22-29.66Q460,643,460,637.07a27.83,27.83,0,0,0-2-11.16,7.09,7.09,0,0,0-7-4.61,8.58,8.58,0,0,0-6,2.45,15.89,15.89,0,0,0-4,6.3,23,23,0,0,0-1.4,8q0,5.82,2.7,8.78a8.73,8.73,0,0,0,6.73,3C452.64,649.74,455.4,648.62,457.23,646.36Z"/><path class="cls-4" d="M475.16,675.27a10.81,10.81,0,0,1-4-4.5,13.08,13.08,0,0,1-1.22-5.48,11.82,11.82,0,0,1,1.76-6.26,22.25,22.25,0,0,1,4.32-5.11q2.56-2.24,6.95-5.4l2.52-1.87a48.8,48.8,0,0,1-6-7.78,15.17,15.17,0,0,1-2.09-7.92,11,11,0,0,1,1.94-6.7,11.58,11.58,0,0,1,5-3.92,16.5,16.5,0,0,1,6.41-1.26,11.29,11.29,0,0,1,7.92,2.7c2,1.8,2.95,4.36,2.95,7.67a14.44,14.44,0,0,1-2.7,8.6,39,39,0,0,1-7.6,7.67c2,2.21,3.61,4,4.79,5.51a23.38,23.38,0,0,1,3,5,14.12,14.12,0,0,1,1.26,5.86,12.85,12.85,0,0,1-2.56,7.89,17,17,0,0,1-6.66,5.29,20.58,20.58,0,0,1-8.64,1.87A13.24,13.24,0,0,1,475.16,675.27Zm13.35-2.49a11.85,11.85,0,0,0,4.28-4.25,11.64,11.64,0,0,0,1.66-6.19,12.86,12.86,0,0,0-1.83-6.73,45.9,45.9,0,0,0-5.3-6.88q-4.4,3.18-6.95,5.4a23,23,0,0,0-4.31,5,10.85,10.85,0,0,0-1.77,5.94,9.14,9.14,0,0,0,1.26,4.82,8.94,8.94,0,0,0,3.31,3.24,8.75,8.75,0,0,0,4.36,1.15A10.5,10.5,0,0,0,488.51,672.78ZM495.32,637a14.29,14.29,0,0,0,2.08-7.59,9,9,0,0,0-1.91-6.2,6,6,0,0,0-4.71-2.16,7.8,7.8,0,0,0-3.6.94,7.49,7.49,0,0,0-3,2.95A10,10,0,0,0,483,630a14.47,14.47,0,0,0,1.66,6.84,34.55,34.55,0,0,0,4.75,6.7A27.25,27.25,0,0,0,495.32,637Z"/><path class="cls-4" d="M510.87,676.24a3.62,3.62,0,0,1-.72-2.38q0-2.88,2.59-9.18t7-15.37c-1.53.05-3.27.14-5.22.29s-3.46.29-4.57.43a3.77,3.77,0,0,1,2.85-3.78,24.21,24.21,0,0,1,7.3-.9h1.73q2.67-5,7.78-13.32l4.1-6.91q-2.24,0-5.25.21l-2.88.15c-1.11,0-2.26.07-3.46.07-4.9,0-7.34-1.13-7.34-3.38a6.58,6.58,0,0,1,.93-3l2.23.43q3,.51,5.26.76a52,52,0,0,0,5.69.25q7.84,0,12.09-1.44a37,37,0,0,1-3.88,5.4,142.92,142.92,0,0,0-11.52,21l2.37.14c1.68.14,3.27.22,4.75.22a10.12,10.12,0,0,0,2.31-.22q-2.52,3.67-5.69,3.67c-2.06,0-3.89,0-5.47-.07l-1.08,2.52q-2.52,6-3.93,10.33a25.7,25.7,0,0,0-1.4,7.89c0,1.39.29,2.3.86,2.73a7.34,7.34,0,0,1-2.73,3.24,5.93,5.93,0,0,1-3,1.08A2.18,2.18,0,0,1,510.87,676.24Z"/></svg>
