<?xml version="1.0" standalone="no"?>
<!DOCTYPE svg PUBLIC "-//W3C//DTD SVG 20010904//EN"
 "http://www.w3.org/TR/2001/REC-SVG-20010904/DTD/svg10.dtd">
<svg version="1.0" xmlns="http://www.w3.org/2000/svg"
 width="803.000000pt" height="803.000000pt" viewBox="0 0 803.000000 803.000000"
 preserveAspectRatio="xMidYMid meet">
<metadata>
Created by potrace 1.11, written by Peter Selinger 2001-2013
</metadata>
<g transform="translate(0.000000,803.000000) scale(0.100000,-0.100000)"
fill="#000000" stroke="none">
<path d="M3867 7924 c-2 -2 -160 -15 -197 -16 -14 0 -99 -10 -210 -24 -25 -3
-53 -7 -62 -10 -24 -7 -57 -13 -108 -20 -25 -4 -56 -11 -70 -16 -14 -5 -25 -8
-25 -7 0 4 -105 -22 -215 -53 -58 -16 -109 -31 -115 -32 -5 -1 -20 -8 -32 -14
-13 -7 -23 -11 -23 -8 0 5 -104 -32 -164 -57 -21 -9 -44 -17 -52 -17 -7 0 -15
-4 -18 -9 -3 -4 -30 -16 -61 -25 -30 -10 -55 -22 -55 -27 0 -5 -6 -9 -14 -9
-8 0 -64 -25 -124 -55 -61 -30 -113 -55 -116 -55 -4 0 -12 -5 -19 -10 -7 -6
-59 -38 -117 -71 -58 -34 -123 -73 -145 -87 -55 -36 -239 -165 -245 -172 -3
-3 -34 -28 -69 -55 -36 -28 -72 -57 -81 -65 -9 -8 -42 -37 -74 -65 -151 -131
-356 -348 -483 -513 -37 -48 -70 -89 -73 -92 -3 -3 -42 -59 -87 -125 -190
-282 -320 -534 -430 -830 -24 -66 -47 -127 -50 -135 -3 -8 -7 -20 -8 -26 -2
-7 -13 -45 -25 -85 -43 -142 -49 -164 -61 -224 -7 -33 -14 -64 -15 -70 -8 -31
-18 -79 -39 -200 -2 -16 -7 -39 -9 -50 -2 -11 -7 -51 -11 -90 -4 -38 -9 -78
-11 -89 -23 -122 -23 -676 1 -826 3 -14 7 -47 10 -75 3 -27 13 -90 22 -140 18
-107 24 -146 26 -162 0 -7 3 -13 7 -13 4 0 6 -11 5 -25 -2 -14 1 -27 6 -31 5
-3 7 -9 4 -14 -3 -5 -2 -18 4 -27 5 -10 12 -34 15 -55 3 -20 12 -56 20 -80 7
-23 19 -65 26 -93 7 -27 17 -56 23 -63 5 -6 6 -12 3 -12 -4 0 -2 -9 4 -21 6
-11 13 -28 15 -37 1 -10 18 -56 36 -102 18 -47 34 -87 34 -90 2 -8 24 -60 53
-125 27 -63 144 -295 179 -355 52 -91 106 -175 114 -178 5 -2 9 -8 9 -13 0 -9
76 -128 89 -139 3 -3 22 -27 41 -55 39 -56 146 -192 170 -215 8 -8 30 -33 49
-55 80 -95 264 -277 385 -380 33 -27 64 -54 70 -60 6 -5 38 -30 71 -55 72 -54
93 -71 110 -88 8 -6 16 -12 19 -12 6 0 169 -109 191 -128 6 -5 15 -11 20 -13
23 -9 150 -83 155 -90 5 -6 320 -161 365 -179 11 -4 36 -15 57 -24 20 -9 39
-16 43 -16 4 0 23 -7 43 -16 56 -24 69 -29 177 -64 94 -30 110 -35 127 -39 4
-1 40 -11 80 -23 40 -11 84 -22 98 -24 14 -3 52 -12 84 -20 32 -9 73 -17 90
-19 17 -2 40 -6 51 -8 54 -12 140 -25 215 -32 30 -3 66 -8 80 -11 138 -27 673
-20 890 11 25 4 61 9 80 11 19 1 44 5 55 7 11 3 58 12 105 21 47 9 96 18 110
21 14 4 36 8 50 11 14 3 32 7 40 9 8 2 17 4 20 5 3 1 10 3 15 5 6 1 12 3 15 4
6 3 27 8 61 15 14 3 45 12 68 20 22 9 41 13 41 9 0 -3 7 0 15 7 8 7 15 9 15 5
0 -4 6 -3 13 2 11 9 43 19 72 24 6 0 19 6 30 12 11 6 22 11 25 12 8 0 103 36
137 51 17 8 33 14 36 14 3 0 36 14 74 32 37 17 68 30 68 29 0 -3 239 122 321
168 178 100 429 278 598 425 137 119 394 384 478 492 34 44 37 47 59 74 12 14
42 54 67 90 26 36 49 67 52 70 3 3 11 14 17 25 7 11 45 70 84 132 39 61 71
115 69 119 -1 4 3 10 9 13 26 16 176 325 255 526 78 197 177 537 200 685 3 19
8 49 11 65 3 17 7 46 9 65 3 19 5 35 6 35 3 0 7 31 14 95 3 36 8 79 10 95 4
25 11 124 19 273 1 17 -2 32 -7 32 -5 0 -4 5 1 13 12 16 2 373 -12 449 -3 12
-7 50 -10 83 -3 33 -7 70 -9 81 -2 12 -7 39 -10 60 -25 161 -69 364 -94 434
-3 8 -7 24 -9 35 -6 26 -9 37 -15 55 -3 8 -11 35 -19 60 -7 25 -17 51 -23 59
-6 8 -9 15 -7 15 5 1 -16 69 -34 111 -7 17 -25 62 -40 100 -15 39 -45 108 -66
153 -22 46 -39 85 -39 87 0 1 -18 34 -39 73 -21 39 -37 73 -35 75 3 2 -2 10
-11 17 -8 7 -15 19 -15 26 0 8 -3 14 -8 14 -4 0 -14 15 -21 33 -8 17 -39 70
-70 117 -30 47 -60 94 -66 105 -16 28 -121 173 -153 212 -15 17 -34 41 -42 53
-8 12 -27 36 -43 54 -15 17 -37 44 -50 59 -142 178 -458 468 -682 625 -44 31
-89 64 -99 74 -11 10 -23 18 -27 18 -4 0 -50 27 -101 60 -51 33 -98 60 -105
60 -7 0 -13 4 -13 8 0 8 -84 52 -96 51 -4 0 -10 3 -13 8 -5 8 -206 108 -266
133 -11 5 -36 15 -55 24 -68 29 -165 67 -180 71 -8 2 -53 17 -100 33 -71 26
-136 45 -185 57 -5 1 -17 5 -25 8 -8 3 -46 13 -85 22 -148 34 -167 37 -236 49
-19 3 -45 8 -59 11 -14 3 -45 7 -70 10 -25 3 -63 7 -85 10 -22 3 -58 8 -80 10
-22 2 -67 7 -100 11 -55 6 -482 13 -488 8z"/>
</g>
</svg>
